<svg xmlns="http://www.w3.org/2000/svg"
	 viewBox="0 0 23.6 23.6">
<style type="text/css">
	.st0{fill:#FFFFFF;}
</style>
<g>
	<g>
		<path class="st0" d="M11.8,2.1c3.1,0,3.5,0,4.8,0.1c1.2,0.1,1.8,0.2,2.2,0.4c0.6,0.2,0.9,0.5,1.4,0.9c0.4,0.4,0.7,0.8,0.9,1.4
			c0.2,0.4,0.4,1,0.4,2.2c0.1,1.2,0.1,1.6,0.1,4.8c0,3.1,0,3.5-0.1,4.8c-0.1,1.2-0.2,1.8-0.4,2.2c-0.2,0.6-0.5,0.9-0.9,1.4
			c-0.4,0.4-0.8,0.7-1.4,0.9c-0.4,0.2-1,0.4-2.2,0.4c-1.2,0.1-1.6,0.1-4.8,0.1c-3.2,0-3.5,0-4.8-0.1c-1.2-0.1-1.8-0.2-2.2-0.4
			c-0.6-0.2-0.9-0.5-1.4-0.9c-0.4-0.4-0.7-0.8-0.9-1.4c-0.2-0.4-0.4-1-0.4-2.2c-0.1-1.2-0.1-1.6-0.1-4.8c0-3.1,0-3.5,0.1-4.8
			c0.1-1.2,0.2-1.8,0.4-2.2c0.2-0.6,0.5-0.9,0.9-1.4c0.4-0.4,0.8-0.7,1.4-0.9c0.4-0.2,1-0.4,2.2-0.4C8.3,2.1,8.6,2.1,11.8,2.1
			 M11.8,0C8.6,0,8.2,0,6.9,0.1C5.7,0.1,4.8,0.3,4.1,0.6C3.3,0.9,2.6,1.3,2,2C1.3,2.6,0.9,3.3,0.6,4.1C0.3,4.8,0.1,5.7,0.1,6.9
			C0,8.2,0,8.6,0,11.8c0,3.2,0,3.6,0.1,4.9c0.1,1.3,0.3,2.1,0.5,2.9C0.9,20.3,1.3,21,2,21.6c0.7,0.7,1.3,1.1,2.1,1.4
			c0.8,0.3,1.6,0.5,2.9,0.5c1.3,0.1,1.7,0.1,4.9,0.1c3.2,0,3.6,0,4.9-0.1c1.3-0.1,2.1-0.3,2.9-0.5c0.8-0.3,1.4-0.7,2.1-1.4
			c0.7-0.7,1.1-1.3,1.4-2.1c0.3-0.8,0.5-1.6,0.5-2.9c0.1-1.3,0.1-1.7,0.1-4.9c0-3.2,0-3.6-0.1-4.9c-0.1-1.3-0.3-2.1-0.5-2.9
			c-0.3-0.8-0.7-1.4-1.4-2.1c-0.7-0.7-1.3-1.1-2.1-1.4c-0.8-0.3-1.6-0.5-2.9-0.5C15.4,0,15,0,11.8,0"/>
		<path class="st0" d="M11.8,5.7c-3.3,0-6.1,2.7-6.1,6.1c0,3.3,2.7,6.1,6.1,6.1s6.1-2.7,6.1-6.1C17.9,8.5,15.1,5.7,11.8,5.7
			 M11.8,15.7c-2.2,0-3.9-1.8-3.9-3.9s1.8-3.9,3.9-3.9s3.9,1.8,3.9,3.9S14,15.7,11.8,15.7"/>
		<path class="st0" d="M19.5,5.5c0,0.8-0.6,1.4-1.4,1.4c-0.8,0-1.4-0.6-1.4-1.4c0-0.8,0.6-1.4,1.4-1.4C18.9,4.1,19.5,4.7,19.5,5.5"
			/>
	</g>
</g>
</svg>