
<svg xmlns="http://www.w3.org/2000/svg"
	 viewBox="0 0 55.3 47.6" >
<style type="text/css">
	.st0{fill:#fff;}
	.st1{fill:#165610;}
	.st2{fill:#fff;}
</style>
<g>
	<g>
		<path class="st0" d="M27.7,19.3c-12.8,0-23.2,10-23.9,22.6h47.7C50.9,29.2,40.4,19.3,27.7,19.3z"/>
	</g>
	<path class="st0" d="M52.3,46.6c-0.5,0.5-1.5,0.9-2.3,0.9H4.7c-0.7,0-1.7-0.5-2.2-1l-2.3-2.6c-0.5-0.6-0.3-1,0.5-1h53.9
		c0.7,0,0.9,0.4,0.4,0.9L52.3,46.6z"/>
	<path class="st1" d="M18.9,22.7c0,0-5.8,2.3-8.5,7.1c-2.7,4.8-3.2,8.6-3.2,8.6h3.5c0,0,0.2-4,2.3-7.9
		C15.2,26.7,18.9,22.7,18.9,22.7z"/>
	<g>
		<path class="st0" d="M26.9,17.3c-1.4,0-2.6,1-2.9,2.3c1.2-0.2,2.4-0.3,3.7-0.3c0.7,0,1.4,0,2.1,0.1C29.4,18.1,28.2,17.3,26.9,17.3
			z"/>
		<path class="st0" d="M26.9,17.3c1.3,0,2.4,0.9,2.8,2.1c0.7,0.1,1.4,0.2,2.1,0.3c-0.3-2.4-2.4-4.4-4.9-4.4c-2.6,0-4.8,2.1-5,4.7
			c0.7-0.2,1.4-0.3,2.1-0.4C24.3,18.2,25.5,17.3,26.9,17.3z"/>
	</g>
	<path class="st2" d="M26.6,10.4c0,0-3.2-1.8-1.5-4.2c1.7-2.4,2.5-2.8,3.2-4C28.9,1,28.9,0,28.9,0s1.7,1.8,1,3.7
		c-0.7,1.9-2.7,3.4-3.2,4.4C26.4,9.1,26.6,10.4,26.6,10.4z"/>
	<path class="st2" d="M30.7,5.2c0,0-0.3,0.6-1.3,1.8c-0.9,1.1-2.1,2.7-2.1,3.4c-0.1,1.8,1.3,2.1,1.3,2.1s-0.2-2,1.1-3.5
		C31.2,7.1,30.7,5.2,30.7,5.2z"/>
</g>
</svg>