
<svg  xmlns="http://www.w3.org/2000/svg"
	 viewBox="0 0 24.8 24.4">
<style type="text/css">
	.st0{fill:#FFFFFF;}
</style>
<g>
	<path class="st0" d="M5.3,0H3.2C1.5,0,0,1.5,0,3.2v0C0,5,1.5,6.5,3.2,6.5h0C5,6.5,6.5,5,6.5,3.2V1.2C6.5,0.5,6,0,5.3,0L5.3,0z
		 M5.3,0"/>
	<path class="st0" d="M14.4,0h-2.1c-1.8,0-3.2,1.5-3.2,3.2v0c0,1.8,1.5,3.2,3.2,3.2h0c1.8,0,3.2-1.5,3.2-3.2V1.2
		C15.6,0.5,15.1,0,14.4,0L14.4,0z M14.4,0"/>
	<path class="st0" d="M23.6,0h-2.1c-1.8,0-3.2,1.5-3.2,3.2v0c0,1.8,1.5,3.2,3.2,3.2h0c1.8,0,3.2-1.5,3.2-3.2V1.2
		C24.8,0.5,24.3,0,23.6,0L23.6,0z M23.6,0"/>
	<path class="st0" d="M5.3,8.9H3.2C1.5,8.9,0,10.3,0,12.1v0c0,1.8,1.5,3.2,3.2,3.2h0c1.8,0,3.2-1.5,3.2-3.2v-2.1
		C6.5,9.4,6,8.9,5.3,8.9L5.3,8.9z M5.3,8.9"/>
	<path class="st0" d="M14.4,8.9h-2.1c-1.8,0-3.2,1.5-3.2,3.2v0c0,1.8,1.5,3.2,3.2,3.2h0c1.8,0,3.2-1.5,3.2-3.2v-2.1
		C15.6,9.4,15.1,8.9,14.4,8.9L14.4,8.9z M14.4,8.9"/>
	<path class="st0" d="M23.6,8.9h-2.1c-1.8,0-3.2,1.5-3.2,3.2v0c0,1.8,1.5,3.2,3.2,3.2h0c1.8,0,3.2-1.5,3.2-3.2v-2.1
		C24.8,9.4,24.3,8.9,23.6,8.9L23.6,8.9z M23.6,8.9"/>
	<path class="st0" d="M5.3,17.9H3.2c-1.8,0-3.2,1.5-3.2,3.2v0c0,1.8,1.5,3.2,3.2,3.2h0c1.8,0,3.2-1.5,3.2-3.2V19
		C6.5,18.4,6,17.9,5.3,17.9L5.3,17.9z M5.3,17.9"/>
	<path class="st0" d="M14.4,17.9h-2.1c-1.8,0-3.2,1.5-3.2,3.2v0c0,1.8,1.5,3.2,3.2,3.2h0c1.8,0,3.2-1.5,3.2-3.2V19
		C15.6,18.4,15.1,17.9,14.4,17.9L14.4,17.9z M14.4,17.9"/>
	<path class="st0" d="M23.6,17.9h-2.1c-1.8,0-3.2,1.5-3.2,3.2v0c0,1.8,1.5,3.2,3.2,3.2h0c1.8,0,3.2-1.5,3.2-3.2V19
		C24.8,18.4,24.3,17.9,23.6,17.9L23.6,17.9z M23.6,17.9"/>
</g>
</svg>
