<svg xmlns="http://www.w3.org/2000/svg"
	 viewBox="0 0 22.9 18.6">
<style type="text/css">
	.st0{fill:#FFFFFF;}
</style>
<g>
	<path class="st0" d="M0,16.5c2.1,1.3,4.6,2.1,7.2,2.1c8.7,0,13.7-7.4,13.4-14c0.9-0.7,1.7-1.5,2.3-2.4c-0.8,0.4-1.8,0.6-2.7,0.7
		c1-0.6,1.7-1.5,2.1-2.6c-0.9,0.5-1.9,0.9-3,1.1C18.4,0.6,17.2,0,15.9,0c-3,0-5.3,2.8-4.6,5.8C7.4,5.6,3.9,3.7,1.6,0.9
		C0.4,3,1,5.7,3.1,7.1c-0.8,0-1.5-0.2-2.1-0.6c-0.1,2.2,1.5,4.2,3.8,4.7c-0.7,0.2-1.4,0.2-2.1,0.1c0.6,1.9,2.3,3.2,4.4,3.3
		C5,16.1,2.5,16.8,0,16.5z"/>
</g>
</svg>
